<svg width="63" height="32" viewBox="0 0 63 32" fill="none" xmlns="http://www.w3.org/2000/svg">
<path d="M7.32617 7.5H15C19.1421 7.5 22.5 10.8579 22.5 15V18C22.5 22.1421 19.1421 25.5 15 25.5H7.32617C4.10858 25.5 1.5 22.8914 1.5 19.6738V13.3262C1.5 10.2091 3.94801 7.66375 7.02637 7.50781L7.32617 7.5Z" fill="white" stroke="#1E1E1E"/>
<path d="M0 15.2834C0 14.9263 0.172497 14.5911 0.463147 14.3835L1 14V19L0.463147 18.6165C0.172497 18.4089 0 18.0737 0 17.7166V15.2834Z" fill="#1E1E1E"/>
<path d="M18.4193 19.5742L19.471 19.2139C19.8342 19.0893 20.0784 18.7472 20.0784 18.3633V16.3887C20.0784 16.0048 19.8341 15.6637 19.471 15.5391L18.4193 15.1777V19.5742Z" fill="white" stroke="black" stroke-width="0.414747"/>
<path d="M13.5715 9.5C16.3723 9.50008 18.6427 11.7705 18.6428 14.5713V17.8574C18.6427 20.9737 16.1165 23.4998 13.0002 23.5H7.71411C4.91335 23.4999 2.6429 21.2295 2.64282 18.4287V14.5713C2.6429 11.7705 4.91335 9.50008 7.71411 9.5H13.5715Z" fill="#1E1E1E" stroke="#E5E5E5"/>
<path d="M3.14282 16L0.142822 16" stroke="#1E1E1E"/>
<path d="M14.7834 17.2568L18.212 17.2568" stroke="black" stroke-width="0.414747"/>
<rect width="2" height="2" transform="matrix(-1 0 0 1 7.14282 15)" fill="white"/>
<rect width="2" height="2" transform="matrix(-1 0 0 1 11.1428 15)" fill="white"/>
<path d="M55.6738 7.5H48C43.8579 7.5 40.5 10.8579 40.5 15V18C40.5 22.1421 43.8579 25.5 48 25.5H55.6738C58.8914 25.5 61.5 22.8914 61.5 19.6738V13.3262C61.5 10.2091 59.052 7.66375 55.9736 7.50781L55.6738 7.5Z" fill="white" stroke="#1E1E1E"/>
<path d="M63 15.2834C63 14.9263 62.8275 14.5911 62.5369 14.3835L62 14V19L62.5369 18.6165C62.8275 18.4089 63 18.0737 63 17.7166V15.2834Z" fill="#1E1E1E"/>
<path d="M44.7236 19.5742L43.6718 19.2139C43.3086 19.0893 43.0644 18.7472 43.0644 18.3633V16.3887C43.0644 16.0048 43.3087 15.6637 43.6718 15.5391L44.7236 15.1777V19.5742Z" fill="white" stroke="black" stroke-width="0.414747"/>
<path d="M49.5713 9.5C46.7705 9.50008 44.5001 11.7705 44.5 14.5713V17.8574C44.5002 20.9737 47.0263 23.4998 50.1426 23.5H55.4287C58.2295 23.4999 60.4999 21.2295 60.5 18.4287V14.5713C60.4999 11.7705 58.2295 9.50008 55.4287 9.5H49.5713Z" fill="#1E1E1E" stroke="#E5E5E5"/>
<path d="M60 16L63 16" stroke="#1E1E1E"/>
<path d="M48.3594 17.2568L44.9308 17.2568" stroke="black" stroke-width="0.414747"/>
<rect x="56" y="15" width="2" height="2" fill="white"/>
<rect x="52" y="15" width="2" height="2" fill="white"/>
<rect x="16.5" y="0.5" width="31" height="31" rx="9.20507" fill="white" stroke="black"/>
<path d="M16 9.70605C16 4.34617 20.3452 0.00110289 25.7051 0.000974613L38.2949 0.000975714C43.6549 0.000976183 48 4.34609 48 9.70605L48 13.1338C47.9999 7.77395 43.6548 3.42871 38.2949 3.42871L25.7051 3.42871C20.3453 3.42884 16.0002 7.77403 16 13.1338L16 9.70605Z" fill="#1E1E1E" fill-opacity="0.2"/>
<path d="M16.5 20.2412L15.4033 19.7715C14.8554 19.5365 14.5 18.9976 14.5 18.4014V14.5986C14.5 14.0024 14.8554 13.4635 15.4033 13.2285L16.5 12.7578V20.2412Z" fill="white" stroke="black"/>
<path d="M47.5 20.2412L48.5967 19.7715C49.1446 19.5365 49.5 18.9976 49.5 18.4014V14.5986C49.5 14.0024 49.1446 13.4635 48.5967 13.2285L47.5 12.7578V20.2412Z" fill="white" stroke="black"/>
<rect x="19.6267" y="6.62673" width="24.7465" height="20.7465" rx="6.09677" fill="#1E1E1E" stroke="#E5E5E5" stroke-width="0.746544"/>
<path d="M16 16L20 16" stroke="black"/>
<path d="M44 16L48 16" stroke="black"/>
<rect x="25.0002" y="13" width="5" height="5" fill="white"/>
<rect x="33.0002" y="14" width="2" height="4" fill="white"/>
<rect x="39.0002" y="13" width="2" height="6" transform="rotate(90 39.0002 13)" fill="white"/>
<rect x="37.0002" y="14" width="2" height="4" fill="white"/>
</svg>
