<svg width="12" height="13" viewBox="0 0 12 13" fill="none" xmlns="http://www.w3.org/2000/svg">
<path fill-rule="evenodd" clip-rule="evenodd" d="M3 3C3 2.72386 3.22386 2.5 3.5 2.5H9.5C9.77614 2.5 10 2.72386 10 3V9C10 9.27614 9.77614 9.5 9.5 9.5C9.22386 9.5 9 9.27614 9 9V3.5H3.5C3.22386 3.5 3 3.27614 3 3Z" fill="#393A40"/>
<path fill-rule="evenodd" clip-rule="evenodd" d="M2.14645 10.3536C1.95118 10.1583 1.95118 9.84171 2.14645 9.64645L8.64645 3.14645C8.84171 2.95119 9.15829 2.95119 9.35355 3.14645C9.54881 3.34171 9.54881 3.65829 9.35355 3.85356L2.85355 10.3536C2.65829 10.5488 2.34171 10.5488 2.14645 10.3536Z" fill="#393A40"/>
</svg>
