<svg width="65" height="64" viewBox="0 0 65 64" fill="none" xmlns="http://www.w3.org/2000/svg">
<rect x="17" y="28.5" width="31" height="31" rx="9.20507" fill="white" stroke="black"/>
<path d="M16.5 37.7061C16.5 32.3462 20.8452 28.0011 26.2051 28.001L38.7949 28.001C44.1549 28.001 48.5 32.3461 48.5 37.7061L48.5 41.1338C48.4999 35.774 44.1548 31.4287 38.7949 31.4287L26.2051 31.4287C20.8453 31.4288 16.5002 35.774 16.5 41.1338L16.5 37.7061Z" fill="#1E1E1E" fill-opacity="0.2"/>
<path d="M17 48.2412L15.9033 47.7715C15.3554 47.5365 15 46.9976 15 46.4014V42.5986C15 42.0024 15.3554 41.4635 15.9033 41.2285L17 40.7578V48.2412Z" fill="white" stroke="black"/>
<path d="M48 48.2412L49.0967 47.7715C49.6446 47.5365 50 46.9976 50 46.4014V42.5986C50 42.0024 49.6446 41.4635 49.0967 41.2285L48 40.7578V48.2412Z" fill="white" stroke="black"/>
<rect x="20.1267" y="34.6267" width="24.7465" height="20.7465" rx="6.09677" fill="#1E1E1E" stroke="#E5E5E5" stroke-width="0.746544"/>
<path d="M16.5 44L20.5 44" stroke="black"/>
<path d="M44.5 44L48.5 44" stroke="black"/>
<rect x="25.5002" y="41" width="5" height="5" fill="white"/>
<rect x="33.5002" y="42" width="2" height="4" fill="white"/>
<rect x="39.5002" y="41" width="2" height="6" transform="rotate(90 39.5002 41)" fill="white"/>
<rect x="37.5002" y="42" width="2" height="4" fill="white"/>
<path opacity="0.25" d="M21.6003 8.4541H18.0544V7.54492H21.6003V8.4541ZM26.3318 8.4541H25.1501V5.18164H26.3318V8.4541ZM31.0593 8.4541H29.8777V5.18164H31.0593V8.4541ZM34.6091 8.4541H33.4275V5.18164H34.6091V8.4541ZM39.3367 8.4541H38.155V5.18164H39.3367V8.4541ZM42.8865 6.36328H44.0691V7.54492H42.8865V8.4541H41.7048V3.99902H42.8865V6.36328ZM45.2507 8.4541H44.0691V7.54492H45.2507V8.4541ZM47.614 8.4541H46.4324V3.99902H47.614V8.4541ZM18.0544 7.54492H16.8728V5.18164H18.0544V7.54492ZM22.782 6.36328H21.6003V5.18164H22.782V6.36328ZM21.6003 5.18164H18.0544V3.99902H21.6003V5.18164ZM29.8777 5.18164H26.3318V3.99902H29.8777V5.18164ZM38.155 5.18164H34.6091V3.99902H38.155V5.18164Z" fill="black"/>
<path opacity="0.55" d="M22.782 15.4551H21.6003V14.7275H22.782V15.4551ZM26.3318 15.4551H25.1501V11.1826H26.3318V15.4551ZM31.0593 15.4551H29.8777V11.1826H31.0593V15.4551ZM34.6091 15.4551H33.4275V11.1826H34.6091V15.4551ZM39.3367 15.4551H38.155V11.1826H39.3367V15.4551ZM42.8865 12.3643H44.0691V13.5459H42.8865V15.4551H41.7048V10.001H42.8865V12.3643ZM47.614 15.4551H45.2507V14.7275H46.4324V10.001H47.614V15.4551ZM21.6003 14.7275H18.0544V13.5459H21.6003V14.7275ZM45.2507 14.7275H44.0691V13.5459H45.2507V14.7275ZM18.0544 13.5459H16.8728V11.1826H18.0544V13.5459ZM22.782 12.3643H21.6003V11.1826H22.782V12.3643ZM21.6003 11.1826H18.0544V10.001H21.6003V11.1826ZM29.8777 11.1826H26.3318V10.001H29.8777V11.1826ZM38.155 11.1826H34.6091V10.001H38.155V11.1826Z" fill="black"/>
<path d="M16.4999 17.7272H17.6817V20.0909H16.4999V17.7272ZM17.6817 20.0909H21.2272V21.2727H17.6817V20.0909ZM21.2272 24.8181V26H17.6817V24.8181H21.2272ZM17.6817 24.8181H16.4999V23.6363H17.6817V24.8181ZM21.2272 21.2727H22.409V24.8181H21.2272V21.2727ZM17.6817 16.5454H21.2272V17.7272H17.6817V16.5454ZM21.2272 17.7272H22.409V18.909H21.2272V17.7272Z" fill="black"/>
<path d="M24.7772 17.7272H25.959V24.8181H24.7772V17.7272ZM25.959 24.8181H29.5045V26H25.959V24.8181ZM29.5045 17.7272H30.6863V24.8181H29.5045V17.7272ZM25.959 16.5454H29.5045V17.7272H25.959V16.5454Z" fill="black"/>
<path d="M33.0546 17.7272H34.2364V24.8181H33.0546V17.7272ZM34.2364 24.8181H37.7818V26H34.2364V24.8181ZM37.7818 17.7272H38.9637V24.8181H37.7818V17.7272ZM34.2364 16.5454H37.7818V17.7272H34.2364V16.5454Z" fill="black"/>
<path d="M41.3319 16.5454H42.5137V18.909H43.6955V20.0909H42.5137V26H41.3319V16.5454ZM46.0592 22.4545H44.8774V21.2727H46.0592V16.5454H47.241V26H46.0592V22.4545ZM44.8774 21.2727H43.6955V20.0909H44.8774V21.2727Z" fill="black"/>
</svg>
