<svg width="64" height="64" viewBox="0 0 64 64" fill="none" xmlns="http://www.w3.org/2000/svg">
<path d="M20 17.5H44C45.933 17.5 47.5 19.067 47.5 21V33C47.5 39.3513 42.3513 44.5 36 44.5H28C21.6487 44.5 16.5 39.3513 16.5 33V21C16.5 19.067 18.067 17.5 20 17.5Z" fill="white" stroke="black"/>
<rect x="26.5" y="24.5" width="11" height="11" rx="5.5" fill="white" stroke="black"/>
<path d="M25.7051 43.8574C20.3452 43.8573 16 39.5122 16 34.1523L16 32.1523C16.0001 37.5122 20.3452 41.8574 25.7051 41.8574L38.2949 41.8574C43.6548 41.8574 47.9999 37.5122 48 32.1523L48 34.1523C48 39.5123 43.6549 43.8574 38.2949 43.8574L25.7051 43.8574Z" fill="#1E1E1E" fill-opacity="0.2"/>
<path d="M32 35C29.2386 35 27 32.7614 27 30L27 28C27 30.7614 29.2386 33 32 33C34.7614 33 37 30.7614 37 28L37 30C37 32.7614 34.7614 35 32 35Z" fill="#1E1E1E" fill-opacity="0.2"/>
<path d="M34 48L34 55L29 55L29 48L34 48Z" fill="white"/>
<path d="M24.9727 44.5L25.9541 45.876C26.2339 46.2676 26.6857 46.4999 27.167 46.5L35.833 46.5C36.3143 46.4999 36.7661 46.2676 37.0459 45.876L38.0283 44.5L24.9727 44.5Z" fill="white" stroke="black"/>
<path d="M28.6943 46.5L29.0205 47.4805C29.2234 48.0891 29.793 48.4999 30.4346 48.5L32.5654 48.5C33.207 48.4999 33.7766 48.0891 33.9795 47.4805L34.3066 46.5L28.6943 46.5Z" fill="white" stroke="black"/>
<path d="M27.7588 46.5L28.2285 47.5967C28.4635 48.1446 29.0024 48.5 29.5986 48.5L33.4014 48.5C33.9976 48.5 34.5365 48.1446 34.7715 47.5967L35.2422 46.5L27.7588 46.5Z" fill="white" stroke="black"/>
<path d="M34 55L34 48L29 48L29 55" stroke="black"/>
<path d="M23.5 10.5L23.5 17.5L27.5 17.5L27.5 10.5C27.5 9.39543 26.6046 8.5 25.5 8.5C24.3954 8.5 23.5 9.39543 23.5 10.5Z" fill="white" stroke="black"/>
<path d="M36.5 10.5L36.5 17.5L40.5 17.5L40.5 10.5C40.5 9.39543 39.6046 8.5 38.5 8.5C37.3954 8.5 36.5 9.39543 36.5 10.5Z" fill="white" stroke="black"/>
</svg>
