<svg width="148" height="148" viewBox="0 0 148 148" fill="none" xmlns="http://www.w3.org/2000/svg">
<rect width="148" height="148" fill="white"/>
<rect x="38.5" y="62.7462" width="72" height="72" rx="19.5" fill="white" stroke="black"/>
<path d="M39.3786 74.3633C42.3793 67.1068 49.5253 62.0002 57.8659 62L91.1911 62C99.5321 62 106.68 67.1064 109.68 74.3633C107.959 71.6547 104.933 69.8555 101.486 69.8555L47.571 69.8555C44.1242 69.8556 41.1003 71.6551 39.3786 74.3633Z" fill="#1E1E1E" fill-opacity="0.2"/>
<path d="M38.5 110.487L33.4033 108.304C32.8553 108.069 32.5001 107.53 32.5 106.934V94.5587C32.5001 93.9625 32.8553 93.4236 33.4033 93.1886L38.5 91.0041V110.487Z" fill="white" stroke="black"/>
<path d="M110.5 109.454L114.65 107.478C115.169 107.23 115.5 106.707 115.5 106.132V94.3605C115.5 93.7856 115.169 93.2621 114.65 93.0148L110.5 91.0373V109.454Z" fill="white" stroke="black"/>
<rect x="45.6267" y="76.873" width="57.7465" height="48.7465" rx="8.37327" fill="#1E1E1E" stroke="#E5E5E5" stroke-width="0.746544"/>
<path d="M38 98.2462L46 98.2462" stroke="black"/>
<path d="M102 98.2462L111 98.2462" stroke="black"/>
<rect x="56.873" y="94.868" width="2.95725" height="19.025" fill="white"/>
<rect x="62.4918" y="94.868" width="2.95725" height="19.025" fill="white"/>
<rect x="67.6177" y="94.868" width="2.95725" height="16.3635" fill="white"/>
<rect x="89.4028" y="94.868" width="2.95725" height="13.5048" fill="white"/>
<rect x="86.4455" y="108.373" width="2.95725" height="2.85868" fill="white"/>
<rect x="70.5749" y="92.305" width="2.95725" height="2.85868" fill="white"/>
<rect x="73.2365" y="89.4464" width="2.95725" height="2.85868" fill="white"/>
<rect x="79.1509" y="84.1233" width="2.95725" height="2.85868" fill="white"/>
<rect x="76.1937" y="84.1233" width="2.95725" height="5.32305" fill="white"/>
<rect x="82.1082" y="84.1233" width="2.95725" height="8.18173" fill="white"/>
<rect x="70.5749" y="111.231" width="15.8706" height="2.85868" fill="white"/>
<rect x="78.5596" y="92.0093" width="10.8433" height="2.85868" fill="white"/>
<rect x="56.873" y="111.231" width="8.57603" height="2.85868" fill="white"/>
<rect x="56.873" y="94.868" width="8.57603" height="2.85868" fill="white"/>
<path d="M117.857 21H120.231V35.2396H117.857V21ZM117.857 37.6129H120.231V39.9862H117.857V37.6129Z" fill="black"/>
<path d="M96.4887 21H105.982V23.3733H98.862V37.6129H105.982V39.9862H96.4887V21ZM105.982 23.3733H108.355V37.6129H105.982V23.3733Z" fill="black"/>
<path d="M79.8665 21H91.7329V23.3733H82.2398V28.1198H89.3596V30.4931H82.2398V37.6129H91.7329V39.9862H79.8665V21Z" fill="black"/>
<path d="M63.2444 21H72.7375V23.3733H65.6177V37.6129H72.7375V39.9862H63.2444V21ZM72.7375 23.3733H75.1108V37.6129H72.7375V23.3733Z" fill="black"/>
<path d="M46.6222 21H48.9955V25.7465H51.3687V28.1198H48.9955V39.9862H46.6222V21ZM56.1153 32.8664H53.742V30.4931H56.1153V21H58.4885V39.9862H56.1153V32.8664ZM53.742 30.4931H51.3687V28.1198H53.742V30.4931Z" fill="black"/>
<path d="M30 21H41.8664V23.3733H32.3733V28.1198H39.4931V30.4931H32.3733V37.6129H41.8664V39.9862H30V21Z" fill="black"/>
</svg>
