<svg width="24" height="24" viewBox="0 0 24 24" fill="none" xmlns="http://www.w3.org/2000/svg">
<path d="M11.1304 20.5612H12.8696V17.3957H15.7681V18.8345H14.3188V22H9.68116V18.8345H8.23188V17.3957H11.1304V20.5612Z" fill="#1C1C1C"/>
<path d="M8.23188 20.2734H5.33333V18.8345H8.23188V20.2734Z" fill="#1C1C1C"/>
<path d="M18.6667 20.2734H15.7681V18.8345H18.6667V20.2734Z" fill="#1C1C1C"/>
<path d="M5.33333 18.8345H3.88406V15.813H5.33333V18.8345Z" fill="#1C1C1C"/>
<path d="M20.1159 18.8345H18.6667V15.813H20.1159V18.8345Z" fill="#1C1C1C"/>
<path d="M6.78261 11.2086H3.44928V12.7914H6.78261V15.813H5.33333V14.2302H2V9.76978H5.33333V8.18705H6.78261V11.2086Z" fill="#1C1C1C"/>
<path d="M18.6667 9.76978H22V14.2302H18.6667V15.813H17.2174V12.7914H20.5507V11.2086H17.2174V8.18705H18.6667V9.76978Z" fill="#1C1C1C"/>
<path fill-rule="evenodd" clip-rule="evenodd" d="M14.3188 9.6259H15.7681V14.3741H14.3188V15.6691H9.68116V14.3741H8.08696V9.6259H9.68116V8.18705H14.3188V9.6259ZM10.9855 11.0647H9.53623V12.9353H10.9855V14.2302H12.8696V12.9353H14.3188V11.0647H12.8696V9.6259H10.9855V11.0647Z" fill="#1C1C1C"/>
<path d="M5.33333 8.18705H3.88406V5.16547H5.33333V8.18705Z" fill="#1C1C1C"/>
<path d="M20.1159 8.18705H18.6667V5.16547H20.1159V8.18705Z" fill="#1C1C1C"/>
<path d="M14.3188 5.16547H15.7681V6.60432H12.8696V3.43885H11.1304V6.60432H8.23188V5.16547H9.68116V2H14.3188V5.16547Z" fill="#1C1C1C"/>
<path d="M8.23188 5.16547H5.33333V3.72662H8.23188V5.16547Z" fill="#1C1C1C"/>
<path d="M18.6667 5.16547H15.7681V3.72662H18.6667V5.16547Z" fill="#1C1C1C"/>
</svg>
