<svg width="16" height="17" viewBox="0 0 16 17" fill="none" xmlns="http://www.w3.org/2000/svg">
<path fill-rule="evenodd" clip-rule="evenodd" d="M7.99992 3.16666C5.0544 3.16666 2.66659 5.55448 2.66659 8.5C2.66659 11.4455 5.0544 13.8333 7.99992 13.8333C10.9454 13.8333 13.3333 11.4455 13.3333 8.5C13.3333 5.55448 10.9454 3.16666 7.99992 3.16666ZM1.33325 8.5C1.33325 4.8181 4.31802 1.83333 7.99992 1.83333C11.6818 1.83333 14.6666 4.8181 14.6666 8.5C14.6666 12.1819 11.6818 15.1667 7.99992 15.1667C4.31802 15.1667 1.33325 12.1819 1.33325 8.5Z" fill="#7E7E7E"/>
<path fill-rule="evenodd" clip-rule="evenodd" d="M7.20992 4.96284C6.88264 5.83559 6.66659 7.08601 6.66659 8.5C6.66659 9.91398 6.88264 11.1644 7.20992 12.0371C7.37449 12.476 7.55436 12.7848 7.72027 12.9719C7.88687 13.1598 7.9829 13.1667 7.99992 13.1667C8.01694 13.1667 8.11297 13.1598 8.27957 12.9719C8.44548 12.7848 8.62535 12.476 8.78991 12.0371C9.11719 11.1644 9.33325 9.91398 9.33325 8.5C9.33325 7.08601 9.11719 5.83559 8.78991 4.96284C8.62535 4.52401 8.44548 4.21519 8.27957 4.02805C8.11297 3.84014 8.01694 3.83333 7.99992 3.83333C7.9829 3.83333 7.88687 3.84014 7.72027 4.02805C7.55436 4.21519 7.37449 4.52401 7.20992 4.96284ZM6.72259 3.14351C7.03454 2.79166 7.46466 2.49999 7.99992 2.49999C8.53518 2.49999 8.96529 2.79166 9.27725 3.14351C9.58989 3.49614 9.84099 3.96837 10.0384 4.49468C10.4349 5.55221 10.6666 6.96846 10.6666 8.5C10.6666 10.0315 10.4349 11.4478 10.0384 12.5053C9.84099 13.0316 9.58989 13.5038 9.27725 13.8565C8.96529 14.2083 8.53518 14.5 7.99992 14.5C7.46466 14.5 7.03454 14.2083 6.72259 13.8565C6.40995 13.5038 6.15885 13.0316 5.96149 12.5053C5.56491 11.4478 5.33325 10.0315 5.33325 8.5C5.33325 6.96846 5.56491 5.55221 5.96149 4.49468C6.15885 3.96837 6.40995 3.49614 6.72259 3.14351Z" fill="#7E7E7E"/>
<path fill-rule="evenodd" clip-rule="evenodd" d="M11.5371 7.71C10.6643 7.38272 9.4139 7.16666 7.99992 7.16666C6.58594 7.16666 5.33552 7.38272 4.46276 7.71C4.02393 7.87456 3.71511 8.05443 3.52798 8.22034C3.34007 8.38694 3.33325 8.48297 3.33325 8.49999C3.33325 8.51702 3.34007 8.61305 3.52798 8.77965C3.71511 8.94556 4.02393 9.12543 4.46276 9.28999C5.33552 9.61727 6.58594 9.83333 7.99992 9.83333C9.4139 9.83333 10.6643 9.61727 11.5371 9.28999C11.9759 9.12543 12.2847 8.94556 12.4719 8.77965C12.6598 8.61305 12.6666 8.51702 12.6666 8.5C12.6666 8.48297 12.6598 8.38694 12.4719 8.22034C12.2847 8.05443 11.9759 7.87456 11.5371 7.71ZM13.3564 7.22267C13.7083 7.53462 13.9999 7.96473 13.9999 8.5C13.9999 9.03526 13.7083 9.46537 13.3564 9.77732C13.0038 10.09 12.5315 10.3411 12.0052 10.5384C10.9477 10.935 9.53146 11.1667 7.99992 11.1667C6.46838 11.1667 5.05214 10.935 3.9946 10.5384C3.46829 10.3411 2.99606 10.09 2.64343 9.77732C2.29158 9.46537 1.99992 9.03526 1.99992 8.49999C1.99992 7.96473 2.29158 7.53462 2.64343 7.22266C2.99606 6.91002 3.46829 6.65893 3.9946 6.46156C5.05214 6.06499 6.46838 5.83333 7.99992 5.83333C9.53146 5.83333 10.9477 6.06499 12.0052 6.46156C12.5315 6.65893 13.0038 6.91002 13.3564 7.22267Z" fill="#7E7E7E"/>
</svg>
