<svg width="148" height="149" viewBox="0 0 148 149" fill="none" xmlns="http://www.w3.org/2000/svg">
<path opacity="0.25" d="M46.5871 11.8662H37.1427V9.44434H46.5871V11.8662ZM59.1925 11.8662H56.0441V3.14746H59.1925V11.8662ZM71.7853 11.8662H68.6378V3.14746H71.7853V11.8662ZM81.2433 11.8662H78.0949V3.14746H81.2433V11.8662ZM93.8361 11.8662H90.6876V3.14746H93.8361V11.8662ZM103.293 6.2959H106.442V9.44434H103.293V11.8662H100.145V0H103.293V6.2959ZM109.59 11.8662H106.442V9.44434H109.59V11.8662ZM115.887 11.8662H112.738V0H115.887V11.8662ZM37.1427 9.44434H33.9943V3.14746H37.1427V9.44434ZM49.7355 6.2959H46.5871V3.14746H49.7355V6.2959ZM46.5871 3.14746H37.1427V0H46.5871V3.14746ZM68.6378 3.14746H59.1925V0H68.6378V3.14746ZM90.6876 3.14746H81.2433V0H90.6876V3.14746Z" fill="black"/>
<path opacity="0.55" d="M49.7355 30.5168H46.5871V28.5793H49.7355V30.5168ZM59.1925 30.5168H56.0441V19.134H59.1925V30.5168ZM71.7853 30.5168H68.6378V19.134H71.7853V30.5168ZM81.2433 30.5168H78.0949V19.134H81.2433V30.5168ZM93.8361 30.5168H90.6876V19.134H93.8361V30.5168ZM103.293 22.2825H106.442V25.4309H103.293V30.5168H100.145V15.9856H103.293V22.2825ZM115.887 30.5168H109.59V28.5793H112.738V15.9856H115.887V30.5168ZM46.5871 28.5793H37.1427V25.4309H46.5871V28.5793ZM109.59 28.5793H106.442V25.4309H109.59V28.5793ZM37.1427 25.4309H33.9943V19.134H37.1427V25.4309ZM49.7355 22.2825H46.5871V19.134H49.7355V22.2825ZM46.5871 19.134H37.1427V15.9856H46.5871V19.134ZM68.6378 19.134H59.1925V15.9856H68.6378V19.134ZM90.6876 19.134H81.2433V15.9856H90.6876V19.134Z" fill="black"/>
<path d="M33 36.5694H36.1483V42.866H33V36.5694ZM36.1483 42.866H45.5932V46.0143H36.1483V42.866ZM45.5932 55.4592V58.6075H36.1483V55.4592H45.5932ZM36.1483 55.4592H33V52.3109H36.1483V55.4592ZM45.5932 46.0143H48.7415V55.4592H45.5932V46.0143ZM36.1483 33.4211H45.5932V36.5694H36.1483V33.4211ZM45.5932 36.5694H48.7415V39.7177H45.5932V36.5694Z" fill="black"/>
<path d="M55.0504 36.5694H58.1986V55.4592H55.0504V36.5694ZM58.1986 55.4592H67.6435V58.6075H58.1986V55.4592ZM67.6435 36.5694H70.7918V55.4592H67.6435V36.5694ZM58.1986 33.4211H67.6435V36.5694H58.1986V33.4211Z" fill="black"/>
<path d="M77.1007 36.5694H80.249V55.4592H77.1007V36.5694ZM80.249 55.4592H89.6939V58.6075H80.249V55.4592ZM89.6939 36.5694H92.8422V55.4592H89.6939V36.5694ZM80.249 33.4211H89.6939V36.5694H80.249V33.4211Z" fill="black"/>
<path d="M99.1511 33.4211H102.299V39.7177H105.448V42.866H102.299V58.6075H99.1511V33.4211ZM111.744 49.1626H108.596V46.0143H111.744V33.4211H114.893V58.6075H111.744V49.1626ZM108.596 46.0143H105.448V42.866H108.596V46.0143Z" fill="black"/>
<path d="M14.254 91.75H39.8409C46.1922 91.75 51.3409 96.8987 51.3409 103.25V122C51.3409 128.351 46.1922 133.5 39.8409 133.5H14.254C7.90269 133.5 2.75397 128.351 2.75397 122V103.25C2.75397 96.8987 7.90269 91.75 14.254 91.75Z" fill="white" stroke="#1E1E1E"/>
<path d="M0 109.177C0 108.819 0.172809 108.484 0.463897 108.276L2.25397 107V118.25L0.463896 116.974C0.172809 116.766 0 116.431 0 116.073V109.177Z" fill="#1E1E1E"/>
<path d="M41.256 119.906L44.9073 118.656C45.2708 118.532 45.5157 118.19 45.5157 117.806V111.389C45.5157 111.005 45.2708 110.663 44.9073 110.538L41.256 109.288V119.906Z" fill="white" stroke="black" stroke-width="0.414747"/>
<path d="M33.8934 97.5C38.0355 97.5 41.3934 100.858 41.3934 105V120.25C41.3934 124.392 38.0355 127.75 33.8934 127.75H14.0838C9.94168 127.75 6.58382 124.392 6.58382 120.25V105C6.58382 100.858 9.94168 97.5 14.0838 97.5H33.8934Z" fill="#1E1E1E" stroke="#E5E5E5"/>
<path d="M7.08382 111.5L0.321916 111.5" stroke="#1E1E1E"/>
<path d="M33.3214 114.327L41.0493 114.327" stroke="black" stroke-width="0.414747"/>
<rect width="4.50794" height="4.5" transform="matrix(-1 0 0 1 16.0997 109.25)" fill="white"/>
<rect width="4.50794" height="4.5" transform="matrix(-1 0 0 1 25.1156 109.25)" fill="white"/>
<path d="M127.746 91.75H102.159C95.8078 91.75 90.6591 96.8987 90.6591 103.25V122C90.6591 128.351 95.8078 133.5 102.159 133.5H127.746C134.097 133.5 139.246 128.351 139.246 122V103.25C139.246 96.8987 134.097 91.75 127.746 91.75Z" fill="white" stroke="#1E1E1E"/>
<path d="M142 109.177C142 108.819 141.827 108.484 141.536 108.276L139.746 107V118.25L141.536 116.974C141.827 116.766 142 116.431 142 116.073V109.177Z" fill="#1E1E1E"/>
<path d="M101.066 119.906L97.4146 118.656C97.0511 118.532 96.8062 118.19 96.8062 117.806V111.389C96.8062 111.005 97.0511 110.663 97.4146 110.538L101.066 109.288V119.906Z" fill="white" stroke="black" stroke-width="0.414747"/>
<path d="M108.429 97.5C104.286 97.5 100.929 100.858 100.929 105V120.25C100.929 124.392 104.286 127.75 108.429 127.75H128.238C132.38 127.75 135.738 124.392 135.738 120.25V105C135.738 100.858 132.38 97.5 128.238 97.5H108.429Z" fill="#1E1E1E" stroke="#E5E5E5"/>
<path d="M135.238 111.5L142 111.5" stroke="#1E1E1E"/>
<path d="M109 114.327L101.273 114.327" stroke="black" stroke-width="0.414747"/>
<rect x="126.222" y="109.25" width="4.50794" height="4.5" fill="white"/>
<rect x="117.206" y="109.25" width="4.50793" height="4.5" fill="white"/>
<rect x="36.627" y="75.623" width="72" height="72" rx="19.5" fill="white" stroke="black"/>
<path d="M37.5056 87.24C40.5063 79.9835 47.6522 74.8769 55.9929 74.8767L89.3181 74.8767C97.6591 74.8767 104.807 79.9831 107.807 87.24C106.086 84.5314 103.06 82.7322 99.613 82.7322L45.698 82.7322C42.2512 82.7323 39.2273 84.5318 37.5056 87.24Z" fill="#1E1E1E" fill-opacity="0.2"/>
<path d="M36.627 123.364L31.5303 121.181C30.9823 120.946 30.6271 120.407 30.627 119.811V107.436C30.6271 106.839 30.9823 106.3 31.5303 106.065L36.627 103.881V123.364Z" fill="white" stroke="black"/>
<path d="M108.627 122.331L112.777 120.354C113.296 120.107 113.627 119.584 113.627 119.009V107.237C113.627 106.662 113.296 106.139 112.777 105.892L108.627 103.914V122.331Z" fill="white" stroke="black"/>
<rect x="43.7537" y="89.7498" width="57.7465" height="48.7465" rx="8.37327" fill="#1E1E1E" stroke="#E5E5E5" stroke-width="0.746544"/>
<path d="M36.127 111.123L44.127 111.123" stroke="black"/>
<path d="M100.127 111.123L109.127 111.123" stroke="black"/>
<rect x="77" y="106.25" width="4.50794" height="9" fill="white"/>
<rect x="90.5238" y="104" width="4.5" height="13.5238" transform="rotate(90 90.5238 104)" fill="white"/>
<rect x="86.0159" y="106.25" width="4.50793" height="9" fill="white"/>
<rect x="56" y="104" width="11.2698" height="11.25" fill="white"/>
</svg>
