<svg width="16" height="16" viewBox="0 0 16 16" fill="none" xmlns="http://www.w3.org/2000/svg">
<path d="M9.26469 2.59778C9.55396 2.3085 9.55396 1.83949 9.26469 1.55021C8.97541 1.26093 8.5064 1.26093 8.21712 1.55021L2.81498 6.95235V3.55547C2.81498 3.14637 2.48334 2.81473 2.07424 2.81473C1.66514 2.81473 1.3335 3.14637 1.3335 3.55547V8.74053C1.3335 8.84097 1.35349 8.93686 1.3897 9.0242C1.42585 9.11157 1.47943 9.19342 1.55045 9.26444C1.69453 9.40851 1.88318 9.48083 2.07202 9.4814L2.07424 9.4814H6.51868C6.92778 9.4814 7.25942 9.14976 7.25942 8.74066C7.25942 8.33156 6.92778 7.99992 6.51868 7.99992H3.86254L9.26469 2.59778Z" fill="#1C1C1C"/>
<path d="M9.48165 6.51844C9.07255 6.51844 8.74091 6.85008 8.74091 7.25918C8.74091 7.66828 9.07255 7.99992 9.48165 7.99992H12.2766L7.44654 13.4337C7.17475 13.7395 7.20229 14.2077 7.50805 14.4795C7.81382 14.7513 8.28202 14.7237 8.55381 14.418L13.1854 9.20749V12.4444C13.1854 12.8535 13.517 13.1851 13.9261 13.1851C14.3352 13.1851 14.6668 12.8535 14.6668 12.4444V7.25918C14.6668 7.25008 14.6667 7.24101 14.6663 7.23199C14.659 7.0283 14.5694 6.84558 14.4298 6.71603C14.3633 6.65439 14.2856 6.6048 14.2 6.57071C14.1154 6.53703 14.0231 6.5185 13.9266 6.51844H9.48165ZM13.9266 6.51844C14.0192 6.51846 14.1121 6.53578 14.2 6.57071C14.2779 6.60171 14.3519 6.64659 14.4182 6.70555C14.4221 6.70901 14.426 6.71251 14.4298 6.71603" fill="#1C1C1C"/>
</svg>
