<svg width="16" height="16" viewBox="0 0 16 16" fill="none" xmlns="http://www.w3.org/2000/svg">
<path d="M6.42854 1.28567C7.3427 0.537764 8.6573 0.537764 9.57146 1.28567C10.0066 1.64171 10.5498 1.83942 11.1121 1.84641C12.2931 1.86109 13.3002 2.7061 13.5197 3.86664C13.6242 4.41912 13.9132 4.91973 14.3394 5.28648C15.2347 6.05688 15.463 7.35151 14.8852 8.38166C14.6101 8.87206 14.5098 9.44133 14.6005 9.99624C14.7911 11.1619 14.1338 12.3004 13.029 12.7181C12.5031 12.917 12.0603 13.2885 11.7731 13.7719C11.1699 14.7874 9.93457 15.237 8.81975 14.8469C8.28903 14.6611 7.71097 14.6611 7.18025 14.8469C6.06543 15.237 4.8301 14.7874 4.22687 13.7719C3.93971 13.2885 3.49689 12.917 2.97095 12.7181C1.86617 12.3004 1.20886 11.1619 1.39949 9.99624C1.49024 9.44133 1.38986 8.87206 1.1148 8.38166C0.536993 7.35151 0.765272 6.05688 1.66056 5.28648C2.08676 4.91973 2.37579 4.41912 2.4803 3.86664C2.69984 2.7061 3.70689 1.86109 4.88792 1.84641C5.45016 1.83942 5.99335 1.64172 6.42854 1.28567Z" fill="#1C1C1C"/>
<path d="M5.59998 7.61807L7.51998 9.60039L10.4 6.40039" stroke="white" stroke-width="2" stroke-linecap="round" stroke-linejoin="round"/>
</svg>
